<?xml version="1.0" standalone="no"?>
<!DOCTYPE svg PUBLIC "-//W3C//DTD SVG 20010904//EN"
 "http://www.w3.org/TR/2001/REC-SVG-20010904/DTD/svg10.dtd">
<svg version="1.0" xmlns="http://www.w3.org/2000/svg"
 width="512.000000pt" height="512.000000pt" viewBox="0 0 512.000000 512.000000"
 preserveAspectRatio="xMidYMid meet">
<metadata>
Created by potrace 1.14, written by Peter Selinger 2001-2017
</metadata>
<g transform="translate(0.000000,512.000000) scale(0.100000,-0.100000)"
fill="#000000" stroke="none">
<path d="M0 2560 l0 -2560 2560 0 2560 0 0 2560 0 2560 -2560 0 -2560 0 0
-2560z m1668 1696 c1 -569 -1 -782 -9 -792 -10 -12 -142 -14 -793 -12 l-781 3
-3 793 -2 792 792 -2 793 -3 3 -779z m1720 9 c1 -423 0 -780 -3 -792 l-5 -23
-819 0 c-737 0 -819 2 -825 16 -8 22 -8 1559 1 1567 3 4 376 6 827 5 l821 -3
3 -770z m1650 -17 l-3 -793 -779 -3 c-567 -1 -782 1 -792 9 -12 10 -14 146
-14 789 0 427 3 780 7 783 3 4 361 7 795 7 l788 0 -2 -792z m-3384 -864 c14
-6 16 -85 16 -800 l0 -794 -795 0 -795 0 0 793 c0 437 3 797 7 800 8 9 1546 9
1567 1z m1734 -796 l2 -798 -830 0 -830 0 0 793 c0 437 3 797 7 800 3 4 376 6
827 5 l821 -3 3 -797z m1650 0 l2 -798 -795 0 -795 0 0 794 c0 626 3 795 13
799 6 3 363 5 792 4 l780 -2 3 -797z m-3373 -1688 l0 -815 -792 -3 -793 -2 0
813 c0 448 3 817 7 820 3 4 360 6 792 5 l786 -3 0 -815z m1720 0 l0 -815 -825
0 -825 0 -3 805 c-1 443 0 811 3 818 3 10 174 12 827 10 l823 -3 0 -815z
m1653 -3 l2 -817 -792 2 -793 3 -3 795 c-1 437 0 805 3 818 l5 22 788 -2 787
-3 3 -818z"/>
<path d="M935 4549 c-5 -6 -51 -32 -104 -57 -102 -47 -111 -54 -111 -90 0 -37
28 -37 98 -3 35 18 69 28 73 24 5 -5 10 -141 11 -303 l3 -295 31 -3 c18 -2 36
3 42 11 9 11 12 108 10 368 -3 354 -3 354 -25 357 -11 2 -24 -2 -28 -9z"/>
<path d="M2472 4534 c-72 -35 -102 -81 -102 -157 0 -53 3 -61 40 -101 l41 -44
-49 -49 c-62 -62 -80 -118 -62 -194 22 -93 126 -169 230 -169 63 0 134 31 181
79 51 53 64 95 52 177 -5 41 -14 57 -59 102 l-53 53 34 36 c89 94 63 209 -59
267 -70 33 -125 33 -194 0z m184 -88 c28 -28 34 -42 34 -75 0 -89 -104 -141
-183 -92 -47 29 -63 70 -48 121 16 55 52 80 113 80 43 0 54 -4 84 -34z m-22
-270 c127 -53 101 -251 -37 -271 -97 -14 -167 44 -167 139 0 111 100 175 204
132z"/>
<path d="M4145 4535 c-88 -43 -125 -109 -125 -223 0 -71 3 -83 29 -119 16 -22
41 -50 56 -61 62 -49 163 -52 230 -6 59 40 64 34 41 -51 -27 -104 -63 -144
-150 -167 -37 -10 -55 -10 -93 1 -76 21 -78 20 -78 -19 0 -50 45 -72 135 -68
147 7 238 100 276 279 17 80 15 216 -5 281 -46 149 -186 217 -316 153z m192
-100 c24 -27 34 -51 38 -90 9 -72 -1 -110 -38 -141 -28 -24 -37 -26 -100 -22
-65 4 -72 6 -97 37 -64 76 -39 215 45 252 11 5 42 7 70 5 43 -3 54 -9 82 -41z"/>
<path d="M885 2870 c-3 -5 -14 -10 -23 -10 -9 0 -39 -19 -66 -42 -101 -87
-150 -281 -115 -450 29 -136 111 -214 224 -211 124 3 211 86 222 212 7 74 -10
134 -52 179 -31 35 -107 72 -147 72 -29 0 -111 -31 -137 -52 -35 -27 -42 -11
-25 55 20 75 46 118 92 154 33 25 45 28 113 28 46 0 82 -5 91 -13 19 -15 28
-6 28 29 0 44 -32 59 -122 59 -42 0 -80 -4 -83 -10z m89 -345 c41 -20 63 -58
66 -115 5 -81 0 -99 -30 -134 -51 -57 -142 -60 -198 -5 -39 38 -58 111 -43
166 10 38 50 85 81 96 30 11 93 7 124 -8z"/>
<path d="M2423 2883 c-20 -4 -23 -10 -23 -56 0 -29 -5 -103 -11 -166 -6 -62
-8 -116 -4 -119 3 -4 53 -7 109 -8 90 -1 108 -4 135 -23 59 -42 79 -126 46
-195 -39 -82 -121 -101 -285 -64 -10 2 -16 -7 -18 -28 -5 -50 33 -68 138 -69
75 0 92 4 145 30 86 44 119 95 123 196 3 61 0 84 -16 116 -37 71 -112 113
-221 122 l-66 6 3 70 c5 113 -5 105 137 105 132 0 135 1 135 55 0 15 -7 25
-22 29 -25 6 -270 6 -305 -1z"/>
<path d="M4185 2884 c-39 -10 -80 -28 -107 -48 -22 -16 -28 -28 -28 -58 0 -21
4 -38 10 -38 5 0 30 15 56 33 40 28 53 32 110 31 57 0 68 -4 92 -27 24 -25 27
-34 27 -101 0 -90 -17 -115 -143 -213 -105 -81 -139 -116 -163 -168 -24 -51
-25 -130 -3 -139 9 -3 105 -6 214 -6 220 0 235 4 221 57 l-7 28 -177 3 c-198
3 -201 4 -154 70 20 29 131 122 146 122 16 0 122 110 141 147 42 82 27 197
-33 253 -42 40 -146 67 -202 54z"/>
<path d="M678 1209 c-21 -12 -24 -49 -6 -67 8 -8 62 -12 175 -12 113 0 163 -3
163 -11 0 -6 -29 -70 -65 -143 -84 -171 -115 -253 -152 -404 -18 -74 -13 -92
25 -92 38 0 51 16 62 81 5 30 14 70 20 89 6 19 16 51 22 70 5 19 16 49 23 65
7 17 23 55 35 85 23 58 104 223 136 277 15 25 17 37 8 50 -10 16 -33 18 -220
20 -130 2 -216 -1 -226 -8z"/>
<path d="M2628 1203 c-8 -10 -30 -45 -48 -78 -49 -89 -124 -198 -212 -308 -63
-78 -78 -104 -78 -131 0 -23 6 -36 18 -41 9 -3 80 -6 157 -5 77 1 148 1 158 1
15 -1 17 -12 17 -81 l0 -80 40 0 39 0 3 78 c3 74 4 77 28 80 55 6 68 12 72 36
8 39 -8 56 -51 56 -27 0 -41 5 -45 17 -4 9 -6 115 -5 234 0 120 -2 222 -6 228
-10 18 -70 13 -87 -6z m10 -310 l-3 -158 -40 -5 c-57 -7 -185 0 -185 10 0 5
23 40 52 77 28 37 75 105 105 151 29 45 58 82 63 82 7 0 10 -55 8 -157z"/>
<path d="M4125 1205 c-63 -18 -88 -49 -67 -82 6 -10 20 -10 66 2 72 19 96 19
144 0 27 -11 44 -27 55 -51 21 -43 21 -62 2 -106 -18 -45 -68 -70 -155 -77
-58 -5 -65 -8 -68 -29 -5 -32 15 -53 44 -46 28 7 117 -11 161 -33 80 -39 65
-172 -25 -210 -50 -21 -154 -13 -205 16 -21 11 -40 21 -43 21 -3 0 -4 -21 -2
-47 3 -46 4 -48 48 -65 60 -23 163 -23 220 0 73 28 90 41 121 90 54 85 34 182
-49 239 -18 12 -38 24 -45 26 -7 3 4 18 27 38 43 36 76 98 76 144 0 39 -31
104 -61 132 -54 50 -148 64 -244 38z"/>
</g>
</svg>
